<svg xmlns="http://www.w3.org/2000/svg" width="390" height="844" viewBox="0 0 390 844" role="img"><title>Stablecoin index mobile</title><rect width="390" height="844" fill="#071018"/><g font-family="Arial" fill="#EAF3F6"><text x="20" y="34" font-size="14">STABLE OR GONE</text><rect x="326" y="12" width="44" height="44" rx="8" fill="#112332" stroke="#284555"/><text x="348" y="40" font-size="18" text-anchor="middle">☰</text><text x="20" y="96" font-size="30">Stablecoins</text><text x="20" y="124" font-size="13" fill="#9AB0BA">Historical registry records</text><rect x="20" y="154" width="350" height="44" rx="8" fill="#0A151F" stroke="#284555"/><text x="34" y="182" font-size="13" fill="#9AB0BA">Search assets or organizations</text><rect x="20" y="218" width="170" height="44" rx="8" fill="#0D1924" stroke="#284555"/><text x="105" y="246" font-size="13" text-anchor="middle" fill="#75D5FF">Filters · 3 active</text><rect x="200" y="218" width="170" height="44" rx="8" fill="#0D1924" stroke="#284555"/><text x="285" y="246" font-size="13" text-anchor="middle" fill="#75D5FF">Sort · Name</text><text x="20" y="294" font-size="12" fill="#78D7A9">34 of 92 records</text><g><rect x="20" y="316" width="350" height="142" rx="10" fill="#0D1924" stroke="#284555"/><text x="38" y="346" font-size="12" fill="#75D5FF">USDC</text><text x="38" y="376" font-size="20">USD Coin</text><text x="278" y="346" font-size="12" fill="#78D7A9">Active</text><text x="38" y="408" font-size="12" fill="#9AB0BA">Backing</text><text x="38" y="430" font-size="13">Fiat-backed</text><text x="190" y="408" font-size="12" fill="#9AB0BA">Organizations</text><text x="190" y="430" font-size="13">Circle + 2 roles</text></g><g><rect x="20" y="476" width="350" height="142" rx="10" fill="#172C3B" stroke="#F4C96B"/><text x="38" y="506" font-size="12" fill="#75D5FF">USDT</text><text x="38" y="536" font-size="20">Tether</text><text x="278" y="506" font-size="12" fill="#78D7A9">Active</text><text x="38" y="568" font-size="12" fill="#9AB0BA">Reference · Backing</text><text x="38" y="590" font-size="13">USD · Fiat-backed</text><text x="220" y="568" font-size="12" fill="#9AB0BA">Evidence</text><text x="220" y="590" font-size="13">26 sources · 6 open</text></g><g><rect x="20" y="636" width="350" height="142" rx="10" fill="#0D1924" stroke="#284555"/><text x="38" y="666" font-size="12" fill="#75D5FF">DAI</text><text x="38" y="696" font-size="20">Dai</text><text x="278" y="666" font-size="12" fill="#78D7A9">Active</text><text x="38" y="728" font-size="12" fill="#9AB0BA">Backing</text><text x="38" y="750" font-size="13">Crypto-backed</text><text x="190" y="728" font-size="12" fill="#9AB0BA">Organizations</text><text x="190" y="750" font-size="13">Sky + 4 roles</text></g><rect x="20" y="790" width="350" height="44" rx="8" fill="#172C3B" stroke="#F4C96B"/><text x="195" y="818" font-size="13" text-anchor="middle">Compare 2 selected</text></g></svg>
